Coordinates
version=1
nRows=14
nColumns=40
inDegrees=yes

Units are S.I. units (second, meters, Newtons, ...)
Angles are in degrees.

endheader
time	pelvis_tilt	pelvis_list	pelvis_rotation	pelvis_tx	pelvis_ty	pelvis_tz	hip_flexion_r	hip_adduction_r	hip_rotation_r	knee_angle_r	knee_angle_r_beta	ankle_angle_r	subtalar_angle_r	mtp_angle_r	hip_flexion_l	hip_adduction_l	hip_rotation_l	knee_angle_l	knee_angle_l_beta	ankle_angle_l	subtalar_angle_l	mtp_angle_l	lumbar_extension	lumbar_bending	lumbar_rotation	arm_flex_r	arm_add_r	arm_rot_r	elbow_flex_r	pro_sup_r	wrist_flex_r	wrist_dev_r	arm_flex_l	arm_add_l	arm_rot_l	elbow_flex_l	pro_sup_l	wrist_flex_l	wrist_dev_l
     54.18442857	     -3.87652835	     -4.58838212	     -2.14784723	      0.97120610	      0.93574471	      0.40818824	     34.34616136	     -2.85026497	     -4.29925434	     62.83501809	     62.83501809	      2.36458024	    -14.69609587	      0.06610535	      9.16372181	     -4.62393658	     -6.04161166	     18.10891106	     18.10891106	     15.03476971	     -8.74618391	      0.43454694	     -8.56461474	      6.81246435	      2.67752609	     15.45235638	    -12.26122115	     -5.11950621	     68.16318833	     45.68209526	      0.00000000	      0.00000000	      9.47929366	    -11.38961201	      5.90202559	     37.16743507	     45.54792406	      0.00000000	      0.00000000
     54.19635714	     -3.82910894	     -4.69924968	     -2.27432800	      0.97077640	      0.93564335	      0.40829878	     34.85582187	     -2.59593215	     -4.30076858	     60.68610707	     60.68610707	      2.43544919	    -14.19130805	      0.19121733	      8.43362845	     -4.70349674	     -6.07336092	     17.78811518	     17.78811518	     15.33189919	     -8.71360302	      0.35079303	     -8.63849506	      7.01913029	      2.46313701	     13.07566089	    -12.36850725	     -4.87260513	     66.74980417	     45.70819570	      0.00000000	      0.00000000	     10.49439476	    -11.78585099	      5.61584382	     37.88932302	     45.60044104	      0.00000000	      0.00000000
     54.20828571	     -3.62670408	     -4.74135488	     -2.49794284	      0.97057851	      0.93578554	      0.40843434	     35.00607844	     -2.38396129	     -4.26130263	     58.16560067	     58.16560067	      2.50750679	    -13.61102895	      0.17920862	      7.32157238	     -4.68371226	     -6.31430140	     17.11556163	     17.11556163	     15.55656598	     -8.56152808	      0.25402494	     -8.90875999	      7.12625441	      3.32388815	     10.77646471	    -13.25181372	     -4.76065942	     63.74822329	     45.79078720	      0.00000000	      0.00000000	     11.80659078	    -11.59491378	      5.06888880	     39.61918442	     45.69556674	      0.00000000	      0.00000000
     54.22021429	     -3.50411422	     -4.75752828	     -2.65366159	      0.97045603	      0.93560482	      0.40862867	     35.09546986	     -2.22701311	     -4.32526081	     55.38782318	     55.38782318	      2.58028341	    -13.06334562	      0.10525480	      6.39573378	     -4.65132198	     -6.48671809	     16.61658401	     16.61658401	     15.79543257	     -8.43017978	      0.05412173	     -9.05604134	      7.21962720	      3.53657736	      8.78066851	    -13.51245729	     -4.70983787	     60.72004744	     45.87644883	      0.00000000	      0.00000000	     12.78209909	    -11.69759620	      4.42093095	     41.28711961	     45.79564474	      0.00000000	      0.00000000
     54.23214286	     -3.43237096	     -4.75528919	     -2.75127391	      0.97042407	      0.93523284	      0.40886107	     35.03007621	     -2.11675784	     -4.52453532	     52.26674386	     52.26674386	      2.33230970	    -12.68478730	     -0.91954732	      5.55718626	     -4.61180921	     -6.64757267	     16.15973428	     16.15973428	     15.89360779	     -8.27447639	     -0.53109848	     -9.05758386	      7.24791107	      2.54324999	      8.43511725	    -12.79398699	     -4.83350787	     54.86802627	     46.04716867	      0.00000000	      0.00000000	     12.52821073	    -12.25543400	      2.35952387	     44.45413170	     46.05396255	      0.00000000	      0.00000000
     54.24407143	     -3.33443794	     -4.72143243	     -2.88470718	      0.97053834	      0.93478893	      0.40914635	     34.81007676	     -2.02086625	     -4.76858535	     49.00257290	     49.00257290	      2.54053884	    -11.95919139	     -0.84350924	      4.65506273	     -4.52864311	     -6.81864782	     15.68302205	     15.68302205	     16.18403769	     -8.07360510	     -0.63625037	     -9.16449898	      7.29709825	      3.01876215	      6.05332905	    -13.24651400	     -4.57608915	     52.64790055	     46.09333783	      0.00000000	      0.00000000	     13.73609525	    -12.16552716	      1.75666034	     45.93716691	     46.14517300	      0.00000000	      0.00000000
     54.25600000	     -3.22573656	     -4.66641557	     -2.99439256	      0.97076666	      0.93426123	      0.40950556	     34.39386272	     -1.95022520	     -5.14640466	     45.52025109	     45.52025109	      2.74648140	    -11.09516285	     -0.83361355	      3.74639956	     -4.43524819	     -7.05304986	     15.22554624	     15.22554624	     16.47600544	     -7.77638700	     -0.81875922	     -9.25865999	      7.33768668	      3.38338498	      4.00279522	    -13.47728522	     -4.52288400	     49.81452023	     46.17122032	      0.00000000	      0.00000000	     14.76823564	    -12.09382513	      1.08242143	     47.69555429	     46.24245534	      0.00000000	      0.00000000
     54.26792857	     -3.15926501	     -4.64075584	     -3.05796006	      0.97110614	      0.93355323	      0.40991107	     33.83511441	     -1.84676857	     -5.67089947	     41.87448757	     41.87448757	      2.93011811	    -10.06352824	     -0.70660279	      2.90336772	     -4.38044045	     -7.22462118	     14.80478029	     14.80478029	     16.77178416	     -7.45898778	     -1.01762650	     -9.28321502	      7.46335778	      3.56440667	      2.05041278	    -13.55086498	     -4.57143763	     47.03034983	     46.25510924	      0.00000000	      0.00000000	     15.67884469	    -12.08735884	      0.46111596	     49.42171842	     46.33087834	      0.00000000	      0.00000000
     54.27985714	     -3.10484714	     -4.50072390	     -3.14176472	      0.97167397	      0.93261036	      0.41060533	     33.17104081	     -1.80236164	     -6.22936873	     38.22133178	     38.22133178	      3.04323698	     -8.95635736	     -1.11251282	      2.03214667	     -4.24938538	     -7.68357016	     14.33493469	     14.33493469	     17.02111168	     -6.85009816	     -1.47684322	     -9.20316574	      7.28347413	      2.94280996	      1.79664701	    -12.88567907	     -5.47220672	     40.74517350	     46.49514651	      0.00000000	      0.00000000	     15.58633857	    -12.41522811	     -1.32185228	     52.93766099	     46.54133119	      0.00000000	      0.00000000
     54.29178571	     -3.04192690	     -4.43805475	     -3.14429828	      0.97237366	      0.93154959	      0.41127684	     32.32646197	     -1.66587837	     -6.92584276	     34.54853641	     34.54853641	      3.31527404	     -7.68341527	     -0.63802893	      1.18542269	     -4.15959542	     -7.73090550	     13.93846955	     13.93846955	     17.40541128	     -6.59587032	     -1.65737467	     -9.16076324	      7.33276657	      3.19584669	     -0.24687643	    -12.86078108	     -5.56625640	     38.60692572	     46.55772813	      0.00000000	      0.00000000	     16.54920993	    -12.37884642	     -1.90909357	     54.52983598	     46.62371612	      0.00000000	      0.00000000
     54.30371429	     -2.96941426	     -4.29234769	     -3.14075207	      0.97331961	      0.93028468	      0.41212985	     31.44770377	     -1.60856094	     -7.71191724	     31.18921065	     31.18921065	      3.84075701	     -6.08050070	      0.40810153	      0.30947916	     -4.03468149	     -8.07703961	     13.52866369	     13.52866369	     17.75612903	     -5.92849685	     -2.08268622	     -9.07959947	      7.19867768	      2.57439032	     -0.49871843	    -12.23200555	     -7.05010071	     33.01230093	     46.81203654	      0.00000000	      0.00000000	     16.38546651	    -12.66379904	     -3.59391028	     58.01342006	     46.82446564	      0.00000000	      0.00000000
     54.31564286	     -2.89665477	     -4.15015731	     -3.12406552	      0.97447255	      0.92884219	      0.41310412	     30.56077488	     -1.51062612	     -8.49377571	     28.18943202	     28.18943202	      4.42309097	     -4.53719177	      2.03363589	     -0.59508973	     -3.89077324	     -8.24902226	     13.09580804	     13.09580804	     18.15100173	     -5.50029987	     -2.23339734	     -8.98223283	      7.11180720	      2.57279835	     -1.84442091	    -11.89359557	     -8.72267178	     29.58665980	     46.98261283	      0.00000000	      0.00000000	     16.92477660	    -12.62878488	     -4.64627183	     60.37327435	     46.96996307	      0.00000000	      0.00000000
     54.32757143	     -2.88194275	     -4.01166635	     -3.07066079	      0.97575497	      0.92715480	      0.41425801	     29.66317603	     -1.35164763	     -9.18693605	     25.42270700	     25.42270700	      4.50549820	     -3.44339946	      2.66963691	     -1.37553564	     -3.76946363	     -8.30811019	     12.77762255	     12.77762255	     18.56442187	     -5.24798905	     -2.40329475	     -8.76325079	      7.03500944	      2.76386462	     -3.95357004	    -11.81683973	     -8.82452953	     28.29652216	     47.02030759	      0.00000000	      0.00000000	     17.92891049	    -12.60018451	     -4.90749001	     61.66267611	     47.01804497	      0.00000000	      0.00000000
     54.33950000	     -2.79999060	     -3.84582206	     -3.00137961	      0.97728538	      0.92537166	      0.41555016	     28.79800163	     -1.25895179	     -9.89623749	     23.29322568	     23.29322568	      4.65042863	     -2.40107334	      3.24297436	     -2.26028618	     -3.63610851	     -8.43616929	     12.43536846	     12.43536846	     19.00093158	     -4.86010729	     -2.57662773	     -8.65241620	      6.89323765	      3.05577776	     -6.01115058	    -11.71434100	     -8.98669470	     26.82292087	     47.07263409	      0.00000000	      0.00000000	     18.86430365	    -12.50964886	     -5.19817526	     63.27772055	     47.07175809	      0.00000000	      0.00000000
